<svg width="24" height="32" viewBox="0 0 24 32" fill="none" xmlns="http://www.w3.org/2000/svg">
<path d="M12 0C5.79675 0 0.75 5.04675 0.75 11.25C0.75 13.3459 1.33056 15.3913 2.42931 17.1658L11.3596 31.5568C11.5307 31.8325 11.8321 32 12.1562 32C12.1587 32 12.1611 32 12.1636 32C12.4906 31.9974 12.7926 31.8248 12.9605 31.5443L21.6632 17.0138C22.7013 15.2768 23.25 13.2837 23.25 11.25C23.25 5.04675 18.2033 0 12 0ZM20.0541 16.0511L12.142 29.2616L4.02294 16.1779C3.10838 14.7009 2.6125 12.9969 2.6125 11.25C2.6125 6.08063 6.83063 1.8625 12 1.8625C17.1694 1.8625 21.3813 6.08063 21.3813 11.25C21.3813 12.9451 20.9181 14.6055 20.0541 16.0511Z" fill="#0F2438"/>
</svg>
